<svg xmlns="http://www.w3.org/2000/svg" xmlns:xlink="http://www.w3.org/1999/xlink" preserveAspectRatio="xMidYMid" width="180" height="38" viewBox="0 0 180 38">
  <defs>
    <style>

      .cls-2 {
        fill: #f8f6ef;
      }
    </style>
  </defs>
  <path d="M178.557,25.760 C178.557,25.760 178.065,26.184 178.065,26.184 C177.915,26.279 177.655,26.266 177.559,26.443 C177.545,26.471 177.422,26.703 177.395,26.785 C177.381,26.826 177.327,27.018 177.327,27.018 C177.327,27.018 177.327,28.275 177.327,28.275 C177.327,28.316 177.381,28.480 177.395,28.699 C177.381,28.768 177.231,29.287 177.231,29.355 C177.231,29.355 177.231,30.518 177.231,30.518 C177.231,30.518 177.135,32.076 177.135,32.076 C177.135,32.076 177.395,33.279 177.395,33.279 C177.395,33.279 177.395,33.689 177.395,33.689 C177.395,33.730 177.327,33.990 177.327,34.086 C177.327,34.182 177.641,34.701 177.655,34.770 C177.751,35.084 177.710,35.768 178.229,35.768 C178.420,35.768 178.557,35.672 178.721,35.672 C178.981,35.672 179.651,35.809 179.651,36.191 C179.651,36.766 179.036,36.943 178.585,36.943 C178.585,36.943 177.094,36.861 177.094,36.861 C177.094,36.861 176.711,36.861 176.711,36.861 C176.684,36.861 176.424,36.943 176.383,36.943 C176.383,36.943 174.989,36.943 174.989,36.943 C174.989,36.943 174.401,37.025 174.401,37.025 C174.401,37.025 173.977,37.025 173.977,37.025 C173.594,37.025 172.883,37.025 172.883,36.506 C172.883,35.768 173.991,36.096 174.497,35.768 C174.497,35.768 174.565,35.699 174.565,35.672 C174.661,35.535 175.016,34.934 175.057,34.838 C175.153,34.701 175.153,34.578 175.153,34.250 C175.153,33.854 174.989,33.785 174.989,33.443 C174.989,33.443 175.249,32.076 175.249,32.076 C175.249,32.008 175.221,31.871 175.153,31.434 C175.153,31.434 175.153,30.777 175.153,30.777 C175.126,30.723 174.989,30.395 174.989,30.258 C175.126,29.807 175.153,29.355 175.153,28.891 C175.153,28.891 175.153,28.439 175.153,28.439 C175.153,28.439 175.057,28.016 175.057,28.016 C175.030,27.797 175.030,27.564 175.030,27.346 C175.030,27.141 175.030,26.922 175.057,26.689 C175.016,26.498 174.756,26.266 174.661,26.184 C173.950,25.664 172.883,26.375 172.883,25.172 C172.883,24.816 173.280,24.721 173.567,24.693 C173.567,24.693 174.346,24.693 174.346,24.693 C175.180,24.693 176.001,24.680 176.807,24.598 C176.930,24.502 177.135,24.502 177.327,24.502 C177.327,24.502 178.229,24.502 178.229,24.502 C178.297,24.502 178.680,24.598 178.721,24.598 C178.981,24.598 179.323,24.625 179.323,24.775 C179.336,24.857 179.364,24.939 179.364,25.035 C179.364,25.145 179.336,25.268 179.323,25.363 C179.268,25.555 178.680,25.691 178.557,25.760 ZM170.973,3.660 C170.973,3.729 170.878,3.729 170.823,3.729 C170.714,3.729 170.686,3.729 170.563,3.660 C170.563,3.660 169.907,3.250 169.907,3.250 C169.811,3.154 169.100,2.566 168.991,2.498 C168.991,2.471 168.772,2.334 168.745,2.334 C168.745,2.334 168.417,2.074 168.417,2.074 C168.294,1.992 167.870,1.828 167.842,1.828 C167.842,1.828 166.530,1.828 166.530,1.828 C166.530,1.828 166.407,1.910 166.366,1.924 C166.188,2.020 165.600,2.348 165.532,2.402 C165.436,2.443 165.436,2.498 165.436,2.539 C165.436,2.539 165.436,2.730 165.436,2.730 C165.436,2.758 165.532,2.895 165.532,2.895 C165.669,3.564 165.764,4.152 165.860,4.809 C165.956,5.479 166.092,6.107 166.092,6.777 C166.092,6.777 166.092,8.104 166.092,8.104 C166.120,8.199 166.188,9.006 166.188,9.115 C166.188,9.115 166.092,10.277 166.092,10.277 C166.092,10.564 166.120,11.344 166.434,11.508 C166.598,11.535 167.282,11.768 167.419,11.836 C167.774,11.959 167.938,12.068 167.938,12.451 C167.938,12.998 167.378,13.162 166.899,13.162 C166.899,13.162 166.694,13.162 166.694,13.162 C166.694,13.162 166.434,12.998 166.434,12.998 C166.434,12.998 165.792,12.998 165.792,12.998 C165.669,12.971 164.958,12.766 164.876,12.738 C164.876,12.738 164.561,12.738 164.561,12.738 C164.178,12.738 164.069,12.998 163.714,12.998 C163.522,12.998 163.331,12.902 163.112,12.902 C162.688,12.971 162.360,13.066 162.005,13.066 C162.005,13.066 161.717,13.066 161.717,13.066 C161.649,12.971 161.649,12.930 161.649,12.834 C161.649,12.670 161.704,12.451 161.800,12.328 C161.841,12.287 162.073,12.055 162.155,12.000 C162.579,11.631 162.948,11.932 163.454,11.344 C163.467,11.316 163.550,11.193 163.550,11.180 C163.550,11.180 163.550,9.949 163.550,9.949 C163.399,9.594 163.303,9.143 163.303,8.760 C163.303,8.760 163.303,8.623 163.303,8.623 C163.303,8.623 163.454,8.104 163.454,8.104 C163.454,8.076 163.303,7.748 163.303,7.693 C163.303,7.693 163.303,7.434 163.303,7.434 C163.303,7.434 163.399,6.709 163.399,6.709 C163.399,6.545 163.303,6.449 163.303,6.299 C163.303,6.299 163.550,5.807 163.550,5.807 C163.550,5.766 163.399,5.520 163.331,5.479 C163.331,5.479 163.331,3.988 163.331,3.988 C163.331,3.988 163.208,3.729 163.208,3.729 C163.208,3.729 163.208,2.238 163.208,2.238 C163.208,1.883 162.319,2.020 161.977,1.924 C161.936,1.910 161.608,1.732 161.417,1.732 C160.993,1.732 160.897,2.170 160.487,2.238 C160.419,2.266 159.803,2.307 159.762,2.334 C159.694,2.334 159.503,2.402 159.503,2.402 C159.434,2.471 159.188,2.689 159.175,2.730 C159.147,2.785 159.092,3.045 159.092,3.059 C159.092,3.059 158.915,3.250 158.915,3.250 C158.915,3.250 158.696,3.305 158.669,3.318 C158.573,3.400 158.149,3.797 158.053,3.893 C157.889,3.893 157.780,3.742 157.684,3.660 C157.684,3.660 157.684,3.059 157.684,3.059 C157.684,2.443 157.698,0.816 158.669,0.816 C158.669,0.816 159.571,0.939 159.571,0.939 C159.694,0.939 159.967,0.912 159.995,0.912 C160.022,0.912 160.145,0.844 160.733,0.844 C161.184,0.789 161.649,0.680 162.100,0.680 C162.360,0.680 162.579,0.775 162.852,0.775 C162.852,0.775 163.686,0.680 163.686,0.680 C163.686,0.680 163.878,0.680 163.878,0.680 C164.001,0.680 164.110,0.693 164.206,0.844 C164.206,0.844 165.204,0.844 165.204,0.844 C165.217,0.844 165.505,0.775 165.532,0.748 C165.532,0.748 165.696,0.748 165.696,0.748 C165.928,0.789 166.639,0.844 166.694,0.844 C166.694,0.844 166.858,0.912 166.858,0.912 C166.858,0.912 166.954,0.939 166.967,0.939 C167.255,0.939 167.446,0.680 167.665,0.584 C167.801,0.557 168.157,0.420 168.184,0.420 C168.184,0.420 169.415,0.420 169.415,0.420 C169.456,0.461 169.620,0.502 169.675,0.502 C169.675,0.502 170.262,0.502 170.262,0.502 C170.290,0.502 170.563,0.816 170.645,0.912 C170.946,1.295 171.069,1.527 171.069,2.074 C171.069,2.115 171.001,2.279 170.973,2.334 C170.973,2.334 170.973,3.660 170.973,3.660 ZM158.686,24.912 C158.686,24.912 158.782,24.939 158.796,24.939 C159.083,24.939 159.274,24.680 159.493,24.584 C159.630,24.557 159.985,24.420 160.013,24.420 C160.013,24.420 161.243,24.420 161.243,24.420 C161.284,24.461 161.448,24.502 161.503,24.502 C161.503,24.502 162.091,24.502 162.091,24.502 C162.118,24.502 162.392,24.816 162.474,24.912 C162.774,25.295 162.897,25.527 162.897,26.074 C162.897,26.115 162.829,26.279 162.802,26.334 C162.802,26.334 162.802,27.660 162.802,27.660 C162.802,27.729 162.706,27.729 162.651,27.729 C162.542,27.729 162.515,27.729 162.392,27.660 C162.392,27.660 161.735,27.250 161.735,27.250 C161.640,27.154 160.929,26.566 160.819,26.498 C160.819,26.471 160.601,26.334 160.573,26.334 C160.573,26.334 160.245,26.074 160.245,26.074 C160.122,25.992 159.698,25.828 159.671,25.828 C159.671,25.828 158.358,25.828 158.358,25.828 C158.358,25.828 158.235,25.910 158.194,25.924 C158.017,26.020 157.429,26.348 157.360,26.402 C157.265,26.443 157.265,26.498 157.265,26.539 C157.265,26.539 157.265,26.730 157.265,26.730 C157.265,26.758 157.360,26.895 157.360,26.895 C157.497,27.564 157.593,28.152 157.688,28.809 C157.784,29.479 157.921,30.107 157.921,30.777 C157.921,30.777 157.921,32.104 157.921,32.104 C157.948,32.199 158.017,33.006 158.017,33.115 C158.017,33.115 157.921,34.277 157.921,34.277 C157.921,34.564 157.948,35.344 158.263,35.508 C158.427,35.535 159.110,35.768 159.247,35.836 C159.602,35.959 159.767,36.068 159.767,36.451 C159.767,36.998 159.206,37.162 158.727,37.162 C158.727,37.162 158.522,37.162 158.522,37.162 C158.522,37.162 158.263,36.998 158.263,36.998 C158.263,36.998 157.620,36.998 157.620,36.998 C157.497,36.971 156.786,36.766 156.704,36.738 C156.704,36.738 156.390,36.738 156.390,36.738 C156.007,36.738 155.897,36.998 155.542,36.998 C155.351,36.998 155.159,36.902 154.940,36.902 C154.517,36.971 154.188,37.066 153.833,37.066 C153.833,37.066 153.546,37.066 153.546,37.066 C153.477,36.971 153.477,36.930 153.477,36.834 C153.477,36.670 153.532,36.451 153.628,36.328 C153.669,36.287 153.901,36.055 153.983,36.000 C154.407,35.631 154.776,35.932 155.282,35.344 C155.296,35.316 155.378,35.193 155.378,35.180 C155.378,35.180 155.378,33.949 155.378,33.949 C155.227,33.594 155.132,33.143 155.132,32.760 C155.132,32.760 155.132,32.623 155.132,32.623 C155.132,32.623 155.282,32.104 155.282,32.104 C155.282,32.076 155.132,31.748 155.132,31.693 C155.132,31.693 155.132,31.434 155.132,31.434 C155.132,31.434 155.227,30.709 155.227,30.709 C155.227,30.545 155.132,30.449 155.132,30.299 C155.132,30.299 155.378,29.807 155.378,29.807 C155.378,29.766 155.227,29.520 155.159,29.479 C155.159,29.479 155.159,27.988 155.159,27.988 C155.159,27.988 155.036,27.729 155.036,27.729 C155.036,27.729 155.036,26.238 155.036,26.238 C155.036,25.883 154.147,26.020 153.806,25.924 C153.765,25.910 153.436,25.732 153.245,25.732 C152.821,25.732 152.726,26.170 152.315,26.238 C152.247,26.266 151.632,26.307 151.591,26.334 C151.522,26.334 151.331,26.402 151.331,26.402 C151.263,26.471 151.017,26.689 151.003,26.730 C150.976,26.785 150.921,27.045 150.921,27.059 C150.921,27.059 150.743,27.250 150.743,27.250 C150.743,27.250 150.524,27.305 150.497,27.318 C150.401,27.400 149.977,27.797 149.882,27.893 C149.718,27.893 149.608,27.742 149.513,27.660 C149.513,27.660 149.513,27.059 149.513,27.059 C149.513,26.443 149.526,24.816 150.497,24.816 C150.497,24.816 151.399,24.939 151.399,24.939 C151.522,24.939 151.796,24.912 151.823,24.912 C151.851,24.912 151.974,24.844 152.561,24.844 C153.013,24.789 153.477,24.680 153.929,24.680 C154.188,24.680 154.407,24.775 154.681,24.775 C154.681,24.775 155.515,24.680 155.515,24.680 C155.515,24.680 155.706,24.680 155.706,24.680 C155.829,24.680 155.938,24.693 156.034,24.844 C156.034,24.844 157.032,24.844 157.032,24.844 C157.046,24.844 157.333,24.775 157.360,24.748 C157.360,24.748 157.524,24.748 157.524,24.748 C157.757,24.789 158.468,24.844 158.522,24.844 C158.522,24.844 158.686,24.912 158.686,24.912 ZM147.589,8.828 C147.534,8.924 147.069,9.594 146.987,9.662 C146.974,9.703 146.714,10.182 146.659,10.250 C146.427,10.578 146.099,10.838 145.839,11.152 C145.675,11.371 145.689,11.412 145.497,11.576 C145.237,11.768 145.032,11.836 144.814,12.068 C144.814,12.096 144.704,12.314 144.677,12.314 C144.622,12.355 144.226,12.383 144.157,12.410 C143.939,12.506 142.872,12.943 142.667,13.094 C142.667,13.094 141.860,13.094 141.860,13.094 C141.054,13.094 140.247,12.943 139.495,12.670 C139.495,12.670 139.331,12.574 139.331,12.574 C139.331,12.574 139.194,12.410 139.167,12.410 C139.140,12.383 138.784,12.328 138.743,12.314 C137.417,12.027 136.775,10.838 135.831,9.990 C135.831,9.990 135.831,9.949 135.831,9.949 C135.831,9.826 135.776,9.566 135.763,9.498 C135.735,9.443 135.517,9.279 135.503,9.266 C135.407,9.115 135.380,8.883 135.339,8.746 C135.312,8.623 135.189,8.295 135.161,8.240 C135.161,8.213 135.025,8.008 134.997,7.980 C134.983,7.953 134.929,7.844 134.929,7.844 C134.929,7.789 134.997,7.529 134.997,7.516 C134.997,7.420 135.025,7.105 135.025,6.805 C135.025,6.490 134.997,6.203 134.997,6.094 C134.997,6.094 135.093,5.834 135.093,5.834 C135.093,5.779 135.148,5.314 135.161,5.232 C135.189,5.164 135.421,4.891 135.503,4.809 C135.503,4.795 135.421,4.631 135.421,4.576 C135.421,4.576 135.407,4.549 135.407,4.535 C135.407,4.535 135.421,4.480 135.421,4.480 C135.571,4.221 135.763,3.865 136.023,3.660 C136.214,3.482 136.419,3.373 136.583,3.154 C136.747,2.949 136.843,2.662 137.007,2.430 C137.007,2.402 137.062,2.348 137.089,2.334 C137.485,2.047 137.909,1.664 138.333,1.432 C138.388,1.377 138.784,1.199 138.839,1.172 C138.839,1.172 139.167,0.912 139.167,0.912 C139.263,0.885 139.919,0.844 140.015,0.844 C140.042,0.816 140.370,0.680 140.411,0.680 C140.726,0.584 141.150,0.488 141.478,0.488 C141.929,0.488 142.380,0.721 142.831,0.816 C143.829,1.049 144.814,1.145 145.675,1.760 C145.716,1.787 146.017,2.143 146.099,2.170 C146.112,2.184 146.400,2.238 146.427,2.238 C146.564,2.334 146.564,2.689 146.659,2.826 C146.687,2.867 146.892,3.141 146.919,3.154 C146.919,3.154 146.987,3.578 146.987,3.578 C147.042,3.660 147.275,3.893 147.329,3.920 C147.329,3.920 147.329,4.672 147.329,4.672 C147.343,4.932 147.685,5.424 147.753,5.766 C147.849,6.299 147.849,6.518 147.849,7.064 C147.849,7.064 147.849,7.584 147.849,7.584 C147.849,7.625 147.780,7.953 147.753,8.076 C147.698,8.295 147.589,8.814 147.589,8.828 ZM145.237,6.490 C145.169,6.381 145.169,6.258 145.169,6.107 C145.169,6.107 145.169,5.779 145.169,5.779 C145.169,5.711 145.169,5.643 145.142,5.574 C145.128,5.355 144.909,5.191 144.814,5.000 C144.677,4.672 144.608,4.412 144.485,4.084 C144.485,4.084 144.444,3.961 144.417,3.920 C144.417,3.920 144.157,3.482 144.157,3.482 C144.157,3.469 144.103,3.209 144.089,3.154 C143.706,2.635 143.091,2.430 142.503,2.170 C142.448,2.143 142.257,2.088 142.243,2.088 C142.243,2.088 141.669,2.088 141.669,2.088 C141.669,2.088 141.245,1.992 141.245,1.992 C141.245,1.992 140.411,1.992 140.411,1.992 C140.411,1.992 139.919,2.238 139.919,2.238 C139.714,2.334 139.591,2.307 139.427,2.430 C139.112,2.635 138.839,2.867 138.497,3.086 C138.483,3.086 138.401,3.154 138.401,3.154 C138.401,3.209 138.360,3.537 138.333,3.578 C138.333,3.578 138.169,3.742 138.169,3.742 C138.073,3.893 137.868,4.344 137.841,4.412 C137.841,4.412 137.841,4.809 137.841,4.809 C137.814,4.891 137.677,5.287 137.677,5.328 C137.677,5.328 137.677,5.451 137.677,5.451 C137.677,5.451 137.841,6.258 137.841,6.258 C137.841,6.449 137.677,6.559 137.677,6.777 C137.677,7.365 137.937,7.721 138.005,8.240 C138.005,8.240 138.169,9.730 138.169,9.730 C138.169,9.730 138.333,9.990 138.333,9.990 C138.360,10.018 138.401,10.154 138.401,10.154 C138.401,10.154 139.003,10.756 139.003,10.756 C138.976,10.797 138.976,10.824 138.976,10.865 C138.976,11.152 139.427,11.289 139.591,11.412 C139.974,11.699 140.329,12.164 140.862,12.164 C141.054,12.191 141.245,12.219 141.437,12.219 C141.601,12.219 141.765,12.191 141.901,12.164 C141.901,12.164 142.161,12.068 142.161,12.068 C142.161,12.068 142.544,12.055 142.544,12.055 C142.544,12.055 142.927,12.068 142.927,12.068 C142.927,12.068 143.050,12.027 143.091,11.986 C143.214,11.932 143.487,11.740 143.487,11.740 C143.569,11.699 143.939,11.289 143.993,11.248 C143.993,11.248 144.253,11.084 144.253,11.084 C144.526,10.838 145.101,10.086 145.142,9.730 C145.196,9.635 145.237,9.211 145.237,9.170 C145.292,8.650 145.319,8.145 145.319,7.652 C145.319,7.256 145.292,6.873 145.237,6.490 ZM137.654,24.652 C137.749,24.584 137.790,24.584 137.913,24.584 C138.378,24.789 138.597,25.117 138.706,25.555 C138.706,25.623 138.761,26.074 138.788,26.115 C138.788,26.143 138.857,26.266 138.884,27.182 C138.884,27.414 138.570,27.578 138.365,27.578 C137.954,27.578 137.913,27.414 137.572,27.182 C137.558,27.182 137.435,27.113 137.408,27.086 C137.394,27.086 137.175,27.045 137.148,27.018 C136.792,26.867 136.628,26.594 136.341,26.279 C136.177,26.279 135.452,26.238 135.288,26.184 C135.261,26.184 135.001,26.047 134.947,26.047 C134.933,26.020 134.673,26.020 134.577,26.020 C133.867,26.020 133.552,26.594 133.415,27.182 C133.415,27.209 133.347,27.469 133.320,27.537 C133.320,27.564 133.347,27.578 133.415,27.920 C133.415,28.480 133.183,29.027 133.183,29.615 C133.183,29.943 133.675,29.943 133.935,29.943 C133.935,29.943 134.249,29.943 134.249,29.943 C134.427,29.930 134.933,29.875 134.947,29.848 C135.001,29.848 135.329,29.574 135.452,29.451 C135.548,29.355 135.822,29.096 135.849,29.055 C136.177,28.604 135.712,27.988 136.519,27.988 C137.038,27.988 137.243,28.357 137.243,28.863 C137.243,29.479 136.915,29.506 136.915,30.025 C136.915,30.258 137.038,30.381 137.079,30.586 C137.079,30.586 137.148,31.488 137.148,31.488 C137.175,31.529 137.298,31.912 137.312,32.049 C137.298,32.213 137.243,32.623 137.243,32.623 C137.202,32.719 136.915,33.006 136.751,33.020 C136.683,33.020 136.533,33.020 136.519,32.951 C136.492,32.924 136.437,32.664 136.437,32.623 C136.273,32.309 135.822,31.584 135.384,31.229 C135.193,31.078 134.933,31.078 134.783,31.078 C134.783,31.078 134.249,31.256 134.249,31.256 C134.222,31.256 134.031,31.174 133.976,31.174 C133.976,31.174 133.894,31.160 133.839,31.160 C133.648,31.160 133.197,31.680 133.183,31.885 C133.183,31.912 133.156,32.172 133.156,32.295 C133.156,32.363 133.183,32.623 133.183,32.623 C133.197,32.924 133.443,34.277 133.484,34.578 C134.003,35.111 133.743,35.549 134.591,35.549 C135.042,35.549 135.493,35.412 135.945,35.385 C135.945,35.385 136.273,35.385 136.273,35.385 C136.300,35.385 136.560,35.248 136.587,35.221 C136.587,35.221 136.915,35.152 136.915,35.152 C136.984,35.125 137.148,35.084 137.148,35.057 C137.202,35.029 137.503,34.770 137.572,34.756 C137.749,34.605 137.982,34.633 138.118,34.496 C138.570,34.113 138.898,33.525 139.568,33.525 C139.568,33.525 139.855,33.525 139.855,33.525 C139.992,33.621 140.019,33.799 140.019,33.963 C140.019,34.400 139.896,34.797 139.677,35.152 C139.663,35.193 139.376,35.576 139.349,35.645 C139.322,35.672 139.281,36.068 139.253,36.123 C139.253,36.150 139.212,36.260 139.185,36.287 C139.117,36.383 138.706,36.779 138.624,36.861 C138.624,36.861 138.501,36.861 138.501,36.861 C138.337,36.861 138.173,36.875 138.009,36.902 C137.818,36.930 137.626,36.943 137.435,36.943 C137.052,36.943 136.792,36.766 136.341,36.766 C136.259,36.766 135.972,36.779 135.945,36.779 C135.945,36.779 135.302,36.875 135.302,36.875 C134.906,36.943 134.482,36.943 134.058,36.943 C134.058,36.943 133.060,36.943 133.060,36.943 C132.773,36.943 132.568,36.861 132.322,36.861 C132.144,36.861 131.966,37.025 131.802,37.025 C131.802,37.025 131.050,36.861 131.050,36.861 C131.009,36.861 130.476,36.998 130.243,37.025 C129.820,37.025 129.177,36.807 129.177,36.314 C129.177,35.152 130.982,35.699 130.982,34.059 C130.982,33.922 130.982,33.785 130.954,33.635 C130.927,33.471 130.913,33.279 130.913,33.115 C130.913,32.979 130.927,32.814 130.954,32.664 C130.982,32.527 130.982,32.404 130.982,32.268 C130.982,32.076 130.954,31.912 130.927,31.721 C130.913,31.516 130.886,31.297 130.886,31.078 C130.886,30.873 130.913,30.682 130.927,30.490 C130.954,30.299 131.009,30.107 131.009,29.902 C131.009,29.574 130.927,29.232 130.859,28.904 C130.790,28.631 130.736,28.316 130.736,28.029 C130.736,27.920 130.763,27.824 130.790,27.729 C130.818,27.633 130.831,27.537 130.831,27.441 C130.831,27.414 130.818,27.346 130.818,27.346 C130.790,27.250 130.599,26.895 130.572,26.854 C130.435,26.703 129.751,25.992 129.601,25.883 C129.587,25.855 129.519,25.760 129.519,25.719 C129.519,25.363 129.861,25.008 130.148,24.912 C130.394,24.816 131.077,24.584 131.146,24.584 C131.173,24.584 131.378,24.557 131.447,24.557 C131.706,24.557 131.925,24.625 132.158,24.680 C132.308,24.693 132.472,24.748 132.636,24.748 C132.800,24.748 132.923,24.721 133.060,24.693 C133.183,24.680 133.320,24.652 133.456,24.652 C133.798,24.652 134.072,24.816 134.386,24.816 C134.413,24.816 134.878,24.844 135.042,24.844 C135.917,24.844 136.779,24.680 137.654,24.652 ZM123.890,2.074 C123.849,2.115 123.302,2.539 123.234,2.566 C123.001,2.730 122.660,2.689 122.660,3.059 C122.660,3.223 122.742,3.346 122.742,3.578 C122.714,3.674 122.660,4.029 122.660,4.057 C122.660,4.098 122.564,4.221 122.564,4.248 C122.564,4.248 122.564,5.068 122.564,5.068 C122.564,5.096 122.496,5.314 122.468,5.451 C122.427,5.738 122.400,5.875 122.400,6.162 C122.400,6.162 122.400,6.422 122.400,6.422 C122.400,6.449 122.468,6.709 122.468,6.750 C122.468,6.750 122.468,8.309 122.468,8.309 C122.496,8.363 122.564,8.623 122.564,8.650 C122.591,8.910 122.591,9.115 122.591,9.361 C122.591,9.662 122.591,9.949 122.400,10.564 C122.427,10.578 122.468,10.729 122.468,10.729 C122.523,10.797 122.564,10.961 122.564,10.988 C122.564,10.988 122.660,11.412 122.660,11.412 C122.742,11.439 123.207,11.672 123.330,11.740 C123.630,11.863 124.246,12.027 124.246,12.506 C124.246,12.547 124.246,12.615 124.150,12.643 C124.150,12.643 123.986,12.643 123.986,12.643 C123.466,12.643 123.261,12.834 122.742,12.902 C122.742,12.902 122.400,12.902 122.400,12.902 C122.400,12.902 122.140,12.971 122.140,12.971 C122.140,12.971 119.570,12.971 119.570,12.971 C119.283,12.971 118.736,12.738 118.736,12.410 C118.736,12.150 118.968,11.809 119.228,11.740 C119.283,11.727 119.707,11.672 119.734,11.645 C119.775,11.631 120.062,11.344 120.158,11.221 C120.253,11.125 120.281,11.016 120.281,10.893 C120.281,10.893 120.253,10.564 120.253,10.564 C120.253,10.564 120.322,9.621 120.322,9.621 C120.322,9.430 120.253,9.279 120.253,9.115 C120.253,8.760 120.582,8.309 120.582,7.980 C120.582,7.789 120.294,7.625 120.130,7.529 C120.130,7.529 119.501,7.488 119.501,7.488 C119.501,7.488 117.984,7.584 117.984,7.584 C117.861,7.584 117.738,7.584 117.669,7.488 C117.669,7.488 116.589,7.488 116.589,7.488 C116.589,7.488 115.167,7.652 115.167,7.652 C115.072,7.680 114.744,7.871 114.648,7.912 C114.580,7.953 114.580,7.980 114.580,8.076 C114.580,8.336 114.675,8.459 114.675,8.828 C114.675,8.828 114.580,9.826 114.580,9.826 C114.580,9.826 114.580,10.154 114.580,10.154 C114.593,10.209 114.744,10.674 114.744,10.729 C114.744,10.729 114.744,11.152 114.744,11.152 C114.771,11.193 114.935,11.549 115.003,11.645 C115.031,11.699 115.140,11.809 115.167,11.809 C115.167,11.809 116.070,11.986 116.070,11.986 C116.138,11.986 116.302,12.164 116.330,12.246 C116.330,12.246 116.343,12.383 116.343,12.424 C116.343,12.930 115.714,13.258 115.236,13.258 C115.236,13.258 114.675,13.066 114.675,13.066 C114.675,13.066 113.705,13.162 113.705,13.162 C113.294,13.162 112.966,12.971 112.583,12.971 C112.583,12.971 111.804,13.162 111.804,13.162 C111.449,13.162 111.080,13.135 110.738,13.066 C110.505,13.025 110.505,12.779 110.505,12.520 C110.505,11.959 111.640,12.096 111.832,11.645 C111.832,11.645 111.996,11.084 111.996,11.084 C112.023,10.988 112.310,10.469 112.324,10.400 C112.419,10.182 112.419,9.990 112.419,9.785 C112.419,9.785 112.419,8.979 112.419,8.979 C112.406,8.719 112.255,8.459 112.255,8.172 C112.255,7.844 112.515,7.885 112.515,7.652 C112.515,7.365 112.255,7.174 112.255,6.873 C112.255,6.873 112.324,6.490 112.324,6.490 C112.324,6.490 112.255,6.025 112.255,6.025 C112.255,6.025 112.419,5.506 112.419,5.506 C112.419,5.506 112.324,4.221 112.324,4.221 C112.324,4.029 112.419,3.865 112.419,3.660 C112.419,3.373 112.283,3.141 112.255,2.826 C112.187,2.826 111.873,2.758 111.832,2.730 C111.791,2.730 111.449,2.594 111.408,2.566 C110.929,2.402 110.177,2.375 110.177,1.719 C110.177,1.404 110.205,0.953 110.574,0.912 C110.642,0.912 111.353,0.844 111.599,0.816 C111.599,0.816 111.763,0.816 111.763,0.816 C111.968,0.816 112.091,0.912 112.324,0.912 C112.638,0.912 112.734,0.912 113.089,0.816 C113.089,0.816 113.322,0.748 113.322,0.748 C113.322,0.748 113.773,0.844 113.773,0.844 C113.964,0.844 114.074,0.748 114.238,0.748 C114.498,0.748 114.716,0.953 115.003,1.008 C115.646,1.049 116.494,0.912 116.494,1.814 C116.494,2.115 115.919,2.348 115.728,2.498 C115.714,2.525 115.455,2.799 115.400,2.826 C115.400,2.826 115.359,2.826 115.359,2.826 C115.195,2.826 115.099,2.730 114.949,2.730 C114.949,2.730 114.908,2.730 114.908,2.730 C114.744,2.826 114.744,3.154 114.744,3.250 C114.744,3.250 114.744,4.248 114.744,4.248 C114.744,4.289 114.675,4.768 114.648,4.809 C114.648,4.809 114.648,5.328 114.648,5.328 C114.648,5.711 114.648,6.326 115.072,6.326 C115.072,6.326 116.261,6.230 116.261,6.230 C116.521,6.230 116.630,6.326 116.986,6.326 C116.986,6.326 117.205,6.326 117.205,6.326 C117.369,6.326 117.478,6.326 117.669,6.230 C117.697,6.230 117.888,6.094 118.025,6.066 C118.380,6.066 118.531,6.326 118.955,6.326 C118.955,6.326 119.324,6.326 119.324,6.326 C119.378,6.326 119.707,6.230 119.734,6.230 C120.103,6.203 120.541,6.258 120.582,5.738 C120.582,5.738 120.582,4.316 120.582,4.316 C120.582,4.275 120.486,3.934 120.486,3.770 C120.486,3.537 120.677,3.318 120.677,2.963 C120.677,2.895 120.677,2.867 120.582,2.826 C120.582,2.826 119.734,2.402 119.734,2.402 C119.707,2.402 119.351,2.348 119.324,2.334 C119.310,2.334 118.955,2.020 118.832,1.910 C118.708,1.814 118.572,1.691 118.572,1.555 C118.572,1.555 118.572,1.500 118.572,1.500 C118.695,1.145 119.146,0.721 119.515,0.721 C119.570,0.721 119.734,0.748 119.734,0.748 C119.775,0.748 119.966,0.816 119.994,0.816 C119.994,0.816 120.910,0.816 120.910,0.816 C121.005,0.844 121.880,0.912 122.003,0.912 C122.003,0.912 123.302,0.912 123.302,0.912 C123.726,0.939 124.314,0.953 124.314,1.500 C124.314,1.787 124.205,1.883 124.013,1.992 C124.013,1.992 123.890,2.074 123.890,2.074 ZM110.373,25.213 C110.400,25.213 110.496,25.145 110.537,25.145 C110.537,25.145 110.797,24.953 110.797,24.953 C110.865,24.953 111.549,24.912 111.631,24.885 C111.644,24.885 112.027,24.721 112.219,24.625 C112.246,24.625 112.342,24.584 112.355,24.557 C112.424,24.584 112.642,24.584 112.861,24.584 C113.066,24.584 113.285,24.584 113.381,24.557 C113.422,24.557 113.750,24.393 113.777,24.393 C113.777,24.393 114.789,24.229 114.789,24.229 C114.789,24.229 114.967,24.229 114.967,24.229 C114.967,24.229 115.527,24.393 115.527,24.393 C115.582,24.393 115.842,24.557 115.855,24.557 C115.855,24.557 116.689,24.557 116.689,24.557 C116.717,24.557 116.826,24.598 116.881,24.625 C117.592,25.076 118.111,25.404 118.111,26.348 C118.111,26.348 118.111,26.566 118.111,26.566 C118.111,26.566 118.029,26.799 118.029,26.799 C118.015,26.867 117.988,27.482 117.947,27.564 C117.947,27.578 117.592,27.934 117.441,28.057 C117.345,28.125 117.304,28.152 117.209,28.152 C117.072,28.152 116.949,28.057 116.881,27.988 C116.170,27.113 115.719,26.170 114.625,25.814 C114.529,25.787 114.092,25.664 113.969,25.650 C113.969,25.650 113.777,25.650 113.777,25.650 C113.545,25.664 112.451,25.828 112.219,25.883 C112.095,25.924 111.631,26.143 111.535,26.238 C111.453,26.279 110.933,26.826 110.865,26.895 C110.865,26.895 110.728,26.949 110.701,26.963 C109.525,27.674 108.787,29.314 108.787,30.805 C108.787,31.434 108.787,32.268 109.279,32.719 C109.279,32.719 109.621,33.963 109.621,33.963 C109.703,34.305 110.113,34.400 110.373,34.537 C110.469,34.605 110.920,35.385 111.029,35.549 C111.193,35.768 111.453,35.699 111.699,35.809 C111.740,35.809 112.000,36.027 112.027,36.055 C112.424,36.314 112.779,36.383 113.258,36.383 C113.258,36.383 113.545,36.383 113.545,36.383 C113.586,36.383 113.900,36.219 113.969,36.219 C113.996,36.191 114.256,36.150 114.297,36.150 C115.103,35.891 114.775,35.439 115.199,34.797 C115.199,34.797 115.295,32.883 115.295,32.883 C115.308,32.391 113.449,32.596 113.449,31.693 C113.449,31.584 113.476,31.557 113.640,31.461 C113.654,31.434 114.092,31.256 114.201,31.229 C114.201,31.229 114.228,31.229 114.228,31.229 C114.529,31.229 114.816,31.393 115.103,31.393 C115.131,31.393 115.199,31.365 115.199,31.365 C116.115,31.297 117.086,31.201 118.029,31.201 C118.029,31.201 118.439,31.229 118.439,31.229 C118.480,31.229 118.535,31.297 118.631,31.775 C118.631,32.145 117.605,32.404 117.605,33.143 C117.605,33.361 117.769,33.498 117.769,33.662 C117.769,33.895 117.605,33.990 117.605,34.277 C117.605,34.277 117.865,35.371 117.865,35.371 C117.865,35.768 117.728,35.863 117.441,36.219 C117.414,36.246 117.373,36.287 117.345,36.287 C117.332,36.314 116.990,36.383 116.949,36.383 C116.635,36.479 116.470,36.738 116.019,36.875 C115.978,36.902 115.431,36.943 115.363,36.971 C115.008,37.039 114.584,37.395 114.256,37.395 C114.201,37.395 114.037,37.381 114.037,37.381 C114.037,37.381 113.709,37.203 113.709,37.203 C113.709,37.203 113.217,37.203 113.217,37.203 C113.162,37.203 112.998,37.162 112.943,37.135 C112.943,37.135 111.699,37.135 111.699,37.135 C111.699,37.135 111.453,37.039 111.453,37.039 C111.453,37.039 110.605,36.875 110.605,36.875 C110.209,36.807 109.853,36.602 109.443,36.479 C109.211,36.383 108.924,36.355 108.719,36.219 C108.691,36.191 108.623,36.150 108.623,36.150 C108.623,36.150 108.035,35.385 108.035,35.385 C108.008,35.316 107.775,34.961 107.693,34.865 C107.693,34.865 107.625,34.756 107.625,34.729 C107.461,34.305 107.228,33.949 107.037,33.539 C107.010,33.498 106.969,33.334 106.969,33.307 C106.873,32.623 106.777,31.844 106.777,31.133 C106.777,30.449 106.914,29.807 107.133,29.150 C107.133,29.096 107.174,28.836 107.201,28.795 C107.228,28.740 107.515,28.357 107.556,28.316 C107.556,28.275 107.611,28.152 107.625,28.125 C107.885,27.414 108.213,26.895 108.787,26.375 C108.787,26.375 109.115,26.143 109.115,26.143 C109.115,26.143 109.539,25.719 109.539,25.719 C109.539,25.719 109.703,25.473 109.703,25.473 C109.881,25.268 110.140,25.295 110.373,25.213 ZM99.508,10.209 C99.508,10.277 99.426,10.496 99.412,10.537 C99.412,10.578 99.193,10.838 99.166,10.865 C99.152,10.920 99.098,11.180 99.070,11.193 C99.070,11.193 99.002,11.453 99.002,11.453 C98.892,11.604 98.291,12.246 98.182,12.355 C98.127,12.410 97.963,12.520 97.922,12.547 C97.867,12.547 97.402,12.602 97.320,12.615 C96.869,12.711 96.473,13.094 95.994,13.121 C95.980,13.121 95.557,13.135 95.365,13.135 C95.365,13.135 94.750,13.121 94.750,13.121 C94.682,13.094 94.394,12.971 94.340,12.943 C93.902,12.779 93.424,12.861 93.000,12.615 C92.549,12.383 92.098,11.740 92.098,11.221 C92.098,11.221 92.098,10.961 92.098,10.961 C92.098,10.633 92.139,10.209 92.480,10.209 C92.480,10.209 92.590,10.209 92.590,10.209 C92.904,10.318 93.137,10.564 93.260,10.865 C93.260,10.865 93.328,11.193 93.328,11.193 C93.355,11.221 93.465,11.344 93.519,11.371 C93.519,11.371 93.656,11.453 93.656,11.453 C93.683,11.480 93.807,11.768 93.848,11.795 C93.875,11.809 93.971,11.932 94.012,11.959 C94.107,11.932 94.203,11.932 94.299,11.932 C94.504,11.932 94.750,11.986 94.914,12.123 C95.119,12.164 95.310,12.191 95.529,12.191 C95.734,12.191 95.953,12.164 96.172,12.123 C96.541,12.055 97.320,10.756 97.320,10.441 C97.320,10.441 97.320,10.277 97.320,10.277 C97.320,10.113 97.252,9.594 97.252,9.539 C97.225,9.525 97.088,9.334 97.088,9.279 C96.951,9.047 96.951,8.691 96.664,8.555 C96.637,8.527 96.432,8.473 96.432,8.459 C96.404,8.459 96.185,8.240 96.172,8.213 C96.090,8.145 95.762,7.939 95.666,7.885 C95.625,7.844 95.215,7.652 95.174,7.625 C95.119,7.598 94.859,7.393 94.846,7.365 C94.080,6.846 93.779,6.969 93.260,6.135 C93.137,5.930 92.781,5.355 92.754,5.287 C92.740,5.260 92.672,5.027 92.672,4.959 C92.672,4.959 92.672,3.305 92.672,3.305 C92.672,3.277 92.850,2.566 92.932,2.307 C93.041,1.787 93.260,1.910 93.588,1.650 C93.683,1.555 94.340,0.885 94.422,0.789 C94.531,0.693 94.846,0.652 94.914,0.625 C95.461,0.461 95.953,0.393 96.527,0.393 C96.527,0.393 96.924,0.393 96.924,0.393 C97.142,0.393 98.100,0.434 98.318,0.461 C98.646,0.584 99.330,1.172 99.330,1.650 C99.316,1.664 99.262,1.924 99.262,1.979 C99.262,1.979 99.262,2.635 99.262,2.635 C99.234,2.703 99.125,3.182 99.070,3.305 C99.057,3.400 98.961,3.400 98.865,3.400 C98.865,3.400 98.578,3.400 98.578,3.400 C98.414,3.318 98.318,2.963 98.250,2.867 C98.195,2.826 97.922,2.539 97.840,2.443 C97.826,2.443 97.676,2.402 97.662,2.375 C97.443,2.266 97.484,1.951 97.252,1.787 C97.115,1.732 96.404,1.500 96.240,1.459 C96.240,1.459 95.830,1.459 95.830,1.459 C95.721,1.555 95.242,2.020 95.174,2.115 C94.941,2.430 94.914,2.949 94.914,3.305 C94.914,3.934 95.269,4.289 95.666,4.795 C95.994,5.232 96.473,5.027 96.828,5.287 C96.869,5.328 97.279,5.684 97.320,5.711 C97.402,5.766 97.758,5.998 97.840,6.039 C97.867,6.066 98.127,6.189 98.182,6.203 C98.182,6.230 98.223,6.285 98.414,6.641 C98.414,6.641 99.070,7.297 99.070,7.297 C99.070,7.297 99.330,7.461 99.330,7.461 C99.576,7.652 99.590,8.076 99.590,8.404 C99.590,8.404 99.590,9.279 99.590,9.279 C99.508,9.443 99.508,9.621 99.508,9.785 C99.508,9.785 99.508,10.209 99.508,10.209 ZM93.537,24.625 C93.537,24.625 95.192,24.625 95.192,24.625 C95.342,24.721 95.533,24.721 95.725,24.721 C95.725,24.721 96.053,24.721 96.053,24.721 C96.285,24.844 96.285,25.117 96.285,25.377 C96.285,25.377 96.285,25.459 96.285,25.459 C96.285,25.691 96.162,25.910 95.957,26.047 C95.957,26.047 95.192,26.539 95.192,26.539 C95.178,26.566 94.850,26.607 94.795,26.607 C94.658,26.662 94.371,27.414 94.371,27.482 C94.371,27.482 94.467,27.920 94.467,27.920 C94.467,27.934 94.467,28.029 94.440,28.029 C94.440,28.057 94.371,28.180 94.371,28.221 C94.276,28.604 94.399,29.328 94.207,29.615 C94.207,29.615 94.139,31.748 94.139,31.748 C94.152,32.240 94.412,32.650 94.440,33.115 C94.440,33.115 94.535,34.633 94.535,34.633 C94.535,34.633 94.658,35.057 94.795,35.453 C94.795,35.453 94.795,36.711 94.795,36.711 C94.795,36.902 94.535,37.039 94.371,37.039 C93.975,37.039 93.442,36.547 93.209,36.287 C93.100,36.164 92.758,35.768 92.690,35.699 C92.690,35.672 92.567,35.385 92.553,35.371 C92.498,35.316 92.006,34.838 91.951,34.770 C91.678,34.496 91.432,34.209 91.199,33.881 C90.994,33.566 90.748,33.471 90.543,33.211 C90.543,33.184 90.420,33.006 90.379,32.951 C90.352,32.910 90.160,32.568 90.133,32.555 C89.873,32.199 89.422,32.049 89.121,31.789 C89.121,31.789 88.889,31.529 88.889,31.529 C88.861,31.516 88.711,31.324 88.711,31.270 C88.711,31.270 88.219,30.873 88.219,30.873 C88.219,30.873 87.139,29.711 87.139,29.711 C86.988,29.547 86.442,29.027 86.373,28.959 C86.277,28.891 86.209,28.863 86.072,28.863 C85.854,28.863 85.785,29.027 85.785,29.219 C85.785,29.260 85.785,29.451 85.813,29.451 C85.813,29.451 85.881,30.107 85.881,30.107 C85.881,30.107 85.881,31.270 85.881,31.270 C85.881,31.270 85.949,32.555 85.949,32.555 C85.977,32.568 86.045,32.979 86.045,33.020 C86.045,33.020 86.045,33.881 86.045,33.881 C86.045,33.895 86.113,34.182 86.141,34.209 C86.182,34.633 86.305,35.057 86.305,35.480 C86.305,35.576 86.305,35.699 86.277,35.795 C86.277,35.795 86.373,35.863 86.373,35.863 C86.592,35.891 87.508,36.000 87.699,36.055 C88.027,36.068 88.055,36.164 88.055,36.451 C88.055,36.943 87.604,37.039 87.207,37.039 C86.797,37.039 86.729,36.943 86.373,36.861 C86.277,36.861 86.004,36.779 85.949,36.779 C85.949,36.779 85.266,36.779 85.266,36.779 C85.266,36.779 83.844,36.875 83.844,36.875 C83.516,36.875 83.324,36.861 82.969,36.779 C82.777,36.738 82.777,36.711 82.777,36.547 C82.777,36.068 83.229,35.891 83.639,35.863 C83.639,35.863 84.295,35.863 84.295,35.863 C84.322,35.863 84.555,35.631 84.623,35.535 C84.678,35.508 84.787,35.316 84.787,35.289 C84.815,35.125 84.883,34.441 84.883,34.305 C84.883,34.305 84.787,33.238 84.787,33.238 C84.787,33.238 84.787,33.047 84.787,33.047 C84.787,32.951 84.787,32.855 84.883,32.787 C84.883,32.787 84.883,32.199 84.883,32.199 C84.883,32.199 84.787,30.490 84.787,30.490 C84.787,30.490 84.787,29.711 84.787,29.711 C84.842,29.643 84.951,29.355 84.951,29.150 C84.951,28.508 84.746,28.029 84.555,27.469 C84.555,27.441 84.486,27.223 84.459,27.209 C84.391,27.045 84.363,26.990 84.227,26.867 C84.131,26.799 83.611,26.402 83.461,26.279 C83.024,25.951 82.231,25.883 82.149,25.199 C82.149,25.172 82.190,25.008 82.217,24.953 C82.231,24.912 82.354,24.816 82.381,24.789 C82.381,24.789 82.709,24.789 82.709,24.789 C82.901,24.775 83.037,24.625 83.256,24.625 C83.639,24.625 84.008,24.748 84.391,24.789 C84.459,24.816 85.143,24.857 85.211,24.857 C85.238,24.885 85.553,25.049 85.621,25.117 C85.621,25.117 86.045,25.623 86.045,25.623 C86.428,25.910 86.783,26.238 87.139,26.539 C87.139,26.566 87.276,26.607 87.303,26.607 C87.317,26.635 87.371,26.689 87.371,26.703 C87.371,26.703 87.563,27.045 87.563,27.045 C87.563,27.045 88.123,27.633 88.123,27.633 C88.151,27.660 88.274,27.920 88.287,27.961 C88.697,28.604 89.244,28.672 89.709,29.219 C90.119,29.670 90.352,30.094 90.707,30.613 C90.707,30.641 90.776,30.682 90.803,30.709 C90.803,30.709 91.035,30.873 91.035,30.873 C91.131,30.941 91.692,31.557 91.787,31.598 C91.815,31.652 92.006,31.775 92.033,31.789 C92.266,31.980 92.526,32.555 92.785,32.555 C92.977,32.555 93.141,32.404 93.277,32.295 C93.469,32.145 93.469,32.131 93.469,31.953 C93.469,31.953 93.277,30.723 93.277,30.723 C93.277,30.723 93.373,29.547 93.373,29.547 C93.360,29.506 93.209,29.232 93.209,29.219 C93.209,29.219 93.209,28.891 93.209,28.891 C93.209,28.836 93.141,28.672 93.113,28.631 C93.113,28.631 93.113,27.373 93.113,27.373 C93.113,27.250 93.072,26.730 93.045,26.607 C93.004,26.443 92.854,26.279 92.662,26.279 C92.457,26.279 92.238,26.375 92.006,26.375 C91.746,26.375 90.652,26.348 90.639,25.883 C90.639,25.883 90.639,25.459 90.639,25.459 C90.639,25.008 90.639,24.625 91.199,24.625 C91.692,24.625 92.211,24.789 92.662,24.789 C92.922,24.789 93.277,24.748 93.537,24.625 ZM80.266,6.723 C80.198,6.750 79.774,7.078 79.705,7.105 C79.678,7.133 79.364,7.256 79.350,7.256 C79.282,7.270 79.104,7.365 79.090,7.393 C78.967,7.393 78.448,7.393 78.352,7.393 C77.600,7.393 77.244,7.393 76.410,7.256 C76.410,7.256 76.055,7.420 76.055,7.516 C76.055,7.516 76.055,9.758 76.055,9.758 C76.205,9.990 76.205,10.141 76.205,10.400 C76.205,10.701 76.055,10.961 76.055,11.275 C76.055,11.289 76.055,11.316 76.055,11.316 C76.110,11.412 76.369,11.672 76.410,11.727 C76.629,11.727 76.957,11.672 77.258,11.672 C77.737,11.672 78.160,11.768 78.160,12.260 C78.160,12.520 77.955,12.902 77.641,12.902 C77.641,12.902 72.610,12.902 72.610,12.902 C72.459,12.902 71.830,12.711 71.830,12.451 C71.830,11.795 72.610,11.863 73.006,11.727 C73.594,10.961 73.717,9.922 73.717,8.910 C73.717,8.240 73.676,7.584 73.676,7.010 C73.676,6.914 73.676,6.818 73.676,6.723 C73.676,6.586 73.785,5.424 73.785,5.287 C73.785,5.191 73.676,4.453 73.676,4.357 C73.649,4.084 73.580,2.689 73.526,2.375 C73.129,1.691 72.090,1.459 72.090,0.844 C72.090,0.789 72.090,0.721 72.090,0.680 C72.090,0.557 72.104,0.434 72.227,0.420 C73.225,0.078 74.619,0.010 75.604,0.010 C75.686,0.010 75.891,0.010 75.891,0.010 C75.959,0.037 76.274,0.160 76.301,0.160 C76.383,0.160 77.026,0.160 77.080,0.160 C77.149,0.160 77.600,0.242 77.737,0.297 C78.735,0.529 79.869,0.680 80.785,1.199 C80.936,1.377 81.565,2.307 81.715,2.525 C81.729,2.566 81.825,2.758 81.825,2.785 C81.852,2.895 82.043,3.893 82.071,4.221 C82.071,4.221 82.112,4.275 82.112,4.316 C82.112,4.768 81.592,5.930 81.196,6.203 C81.073,6.285 80.334,6.682 80.266,6.723 ZM79.446,4.357 C79.418,3.934 79.227,2.758 79.186,2.662 C78.994,1.883 78.311,1.568 77.641,1.336 C77.600,1.336 77.573,1.336 77.545,1.336 C77.149,1.336 76.602,1.377 76.151,1.596 C76.178,1.828 76.178,2.047 76.178,2.279 C76.178,3.346 76.055,4.385 76.055,5.506 C76.055,5.588 76.055,6.203 76.055,6.326 C76.082,6.381 76.246,6.559 76.301,6.586 C76.301,6.586 76.342,6.586 76.369,6.586 C76.369,6.586 76.410,6.586 76.410,6.586 C76.479,6.586 76.916,6.463 76.985,6.463 C76.998,6.463 77.094,6.463 77.217,6.463 C77.450,6.463 77.791,6.463 77.996,6.463 C78.092,6.463 78.133,6.463 78.160,6.463 C78.256,6.449 78.830,6.066 78.940,5.930 C78.967,5.902 79.035,5.451 79.090,5.410 C79.158,5.096 79.487,4.932 79.487,4.576 C79.487,4.508 79.446,4.357 79.446,4.357 ZM65.833,34.578 C66.352,35.111 66.092,35.549 66.940,35.549 C67.391,35.549 67.842,35.412 68.294,35.385 C68.294,35.385 68.622,35.385 68.622,35.385 C68.649,35.385 68.909,35.248 68.936,35.221 C68.936,35.221 69.264,35.152 69.264,35.152 C69.333,35.125 69.497,35.084 69.497,35.057 C69.551,35.029 69.852,34.770 69.920,34.756 C70.098,34.605 70.331,34.633 70.467,34.496 C70.919,34.113 71.247,33.525 71.917,33.525 C71.917,33.525 72.204,33.525 72.204,33.525 C72.340,33.621 72.368,33.799 72.368,33.963 C72.368,34.400 72.245,34.797 72.026,35.152 C72.012,35.193 71.725,35.576 71.698,35.645 C71.670,35.672 71.629,36.068 71.602,36.123 C71.602,36.150 71.561,36.260 71.534,36.287 C71.465,36.383 71.055,36.779 70.973,36.861 C70.973,36.861 70.850,36.861 70.850,36.861 C70.686,36.861 70.522,36.875 70.358,36.902 C70.167,36.930 69.975,36.943 69.784,36.943 C69.401,36.943 69.141,36.766 68.690,36.766 C68.608,36.766 68.321,36.779 68.294,36.779 C68.294,36.779 67.651,36.875 67.651,36.875 C67.254,36.943 66.831,36.943 66.407,36.943 C66.407,36.943 65.409,36.943 65.409,36.943 C65.122,36.943 64.917,36.861 64.670,36.861 C64.493,36.861 64.315,37.025 64.151,37.025 C64.151,37.025 63.399,36.861 63.399,36.861 C63.358,36.861 62.825,36.998 62.592,37.025 C62.169,37.025 61.526,36.807 61.526,36.314 C61.526,35.152 63.331,35.699 63.331,34.059 C63.331,33.922 63.331,33.785 63.303,33.635 C63.276,33.471 63.262,33.279 63.262,33.115 C63.262,32.979 63.276,32.814 63.303,32.664 C63.331,32.527 63.331,32.404 63.331,32.268 C63.331,32.076 63.303,31.912 63.276,31.721 C63.262,31.516 63.235,31.297 63.235,31.078 C63.235,30.873 63.262,30.682 63.276,30.490 C63.303,30.299 63.358,30.107 63.358,29.902 C63.358,29.574 63.276,29.232 63.208,28.904 C63.139,28.631 63.085,28.316 63.085,28.029 C63.085,27.920 63.112,27.824 63.139,27.729 C63.167,27.633 63.180,27.537 63.180,27.441 C63.180,27.414 63.167,27.346 63.167,27.346 C63.139,27.250 62.948,26.895 62.920,26.854 C62.784,26.703 62.100,25.992 61.950,25.883 C61.936,25.855 61.868,25.760 61.868,25.719 C61.868,25.363 62.210,25.008 62.497,24.912 C62.743,24.816 63.426,24.584 63.495,24.584 C63.522,24.584 63.727,24.557 63.795,24.557 C64.055,24.557 64.274,24.625 64.506,24.680 C64.657,24.693 64.821,24.748 64.985,24.748 C65.149,24.748 65.272,24.721 65.409,24.693 C65.532,24.680 65.669,24.652 65.805,24.652 C66.147,24.652 66.420,24.816 66.735,24.816 C66.762,24.816 67.227,24.844 67.391,24.844 C68.266,24.844 69.127,24.680 70.002,24.652 C70.098,24.584 70.139,24.584 70.262,24.584 C70.727,24.789 70.946,25.117 71.055,25.555 C71.055,25.623 71.110,26.074 71.137,26.115 C71.137,26.143 71.206,26.266 71.233,27.182 C71.233,27.414 70.919,27.578 70.713,27.578 C70.303,27.578 70.262,27.414 69.920,27.182 C69.907,27.182 69.784,27.113 69.756,27.086 C69.743,27.086 69.524,27.045 69.497,27.018 C69.141,26.867 68.977,26.594 68.690,26.279 C68.526,26.279 67.801,26.238 67.637,26.184 C67.610,26.184 67.350,26.047 67.295,26.047 C67.282,26.020 67.022,26.020 66.926,26.020 C66.215,26.020 65.901,26.594 65.764,27.182 C65.764,27.209 65.696,27.469 65.669,27.537 C65.669,27.564 65.696,27.578 65.764,27.920 C65.764,28.480 65.532,29.027 65.532,29.615 C65.532,29.943 66.024,29.943 66.284,29.943 C66.284,29.943 66.598,29.943 66.598,29.943 C66.776,29.930 67.282,29.875 67.295,29.848 C67.350,29.848 67.678,29.574 67.801,29.451 C67.897,29.355 68.170,29.096 68.198,29.055 C68.526,28.604 68.061,27.988 68.868,27.988 C69.387,27.988 69.592,28.357 69.592,28.863 C69.592,29.479 69.264,29.506 69.264,30.025 C69.264,30.258 69.387,30.381 69.428,30.586 C69.428,30.586 69.497,31.488 69.497,31.488 C69.524,31.529 69.647,31.912 69.661,32.049 C69.647,32.213 69.592,32.623 69.592,32.623 C69.551,32.719 69.264,33.006 69.100,33.020 C69.032,33.020 68.881,33.020 68.868,32.951 C68.840,32.924 68.786,32.664 68.786,32.623 C68.622,32.309 68.170,31.584 67.733,31.229 C67.542,31.078 67.282,31.078 67.131,31.078 C67.131,31.078 66.598,31.256 66.598,31.256 C66.571,31.256 66.379,31.174 66.325,31.174 C66.325,31.174 66.243,31.160 66.188,31.160 C65.997,31.160 65.545,31.680 65.532,31.885 C65.532,31.912 65.504,32.172 65.504,32.295 C65.504,32.363 65.532,32.623 65.532,32.623 C65.545,32.924 65.792,34.277 65.833,34.578 ZM60.300,12.971 C59.835,12.971 59.479,12.779 58.960,12.779 C58.960,12.779 57.893,12.902 57.893,12.902 C57.538,12.902 56.663,12.834 56.663,12.328 C56.663,11.645 58.153,11.932 58.153,11.180 C58.153,11.180 58.153,11.111 58.153,11.111 C58.126,11.057 57.989,10.674 57.989,10.633 C57.962,10.578 57.962,10.469 57.962,10.346 C57.962,10.236 57.962,10.113 57.989,10.059 C57.729,9.826 57.729,9.662 57.729,9.402 C57.729,9.402 57.729,9.115 57.729,9.115 C57.729,9.088 57.675,8.979 57.661,8.951 C57.606,8.910 57.401,8.691 57.319,8.650 C57.182,8.527 56.923,8.527 56.758,8.404 C56.731,8.404 56.526,8.404 56.499,8.391 C56.376,8.432 56.143,8.527 56.116,8.568 C56.116,8.568 55.979,8.650 55.979,8.650 C55.979,8.650 55.309,8.568 55.309,8.568 C55.309,8.568 54.981,8.568 54.981,8.568 C54.516,8.568 53.901,8.951 53.641,9.361 C53.614,9.402 53.559,9.662 53.559,9.689 C53.518,9.799 53.423,9.922 53.423,10.059 C53.423,10.059 53.395,10.400 53.395,10.400 C53.395,10.400 53.300,10.756 53.300,10.756 C53.300,10.756 53.423,11.385 53.423,11.385 C53.423,11.412 53.491,11.480 53.559,11.549 C53.641,11.631 53.710,11.699 53.710,11.727 C53.710,11.768 53.997,11.795 54.038,11.809 C54.270,11.809 54.844,11.863 54.844,12.287 C54.844,12.506 54.653,12.738 54.421,12.807 C54.257,12.834 53.491,12.998 53.300,13.039 C53.300,13.039 52.971,12.902 52.971,12.902 C52.971,12.902 50.989,13.039 50.989,13.039 C50.510,12.971 50.319,12.943 50.114,12.479 C50.114,11.836 51.016,11.672 51.385,11.439 C51.385,11.412 51.454,11.371 51.481,11.344 C51.645,11.180 51.864,10.961 51.960,10.701 C51.987,10.674 52.124,10.277 52.124,10.236 C52.315,9.703 52.643,9.307 52.835,8.883 C52.876,8.828 52.999,8.473 52.999,8.404 C52.999,8.404 53.231,7.434 53.231,7.434 C53.258,7.393 53.395,7.064 53.395,7.037 C53.395,7.037 53.641,6.230 53.641,6.230 C53.751,5.834 53.942,5.615 54.106,5.260 C54.106,5.260 54.175,4.863 54.175,4.863 C54.202,4.795 54.257,4.549 54.270,4.535 C54.270,4.535 54.421,4.057 54.421,4.057 C54.434,3.920 54.516,3.469 54.516,3.346 C54.516,3.346 54.516,2.307 54.516,2.307 C54.530,2.184 54.680,1.828 54.844,1.732 C54.844,1.732 55.309,1.568 55.309,1.568 C55.364,1.568 55.528,1.363 55.555,1.336 C55.555,1.336 56.020,1.117 56.020,1.117 C56.020,1.117 56.376,0.775 56.376,0.775 C56.690,0.775 56.895,1.076 57.018,1.336 C57.059,1.500 57.305,2.266 57.319,2.402 C57.319,2.402 57.319,2.799 57.319,2.799 C57.346,2.826 57.401,2.922 57.415,2.963 C57.675,3.373 57.852,3.920 57.989,4.453 C58.016,4.809 58.030,4.809 58.057,4.809 C58.221,4.809 58.290,5.000 58.372,5.191 C58.372,5.191 58.536,5.643 58.536,5.643 C58.550,5.738 58.796,6.203 58.837,6.326 C58.864,6.354 59.001,6.545 59.001,6.545 C59.028,6.613 59.247,7.270 59.247,7.338 C59.342,7.693 59.452,8.104 59.643,8.404 C59.643,8.459 59.862,8.691 59.876,8.746 C59.876,8.746 59.958,9.115 59.958,9.115 C60.026,9.430 60.122,9.594 60.135,9.799 C60.135,9.895 60.354,10.564 60.354,10.633 C60.382,10.838 60.559,11.125 60.710,11.180 C60.751,11.221 61.257,11.439 61.298,11.453 C61.749,11.727 62.050,11.631 62.050,12.219 C62.050,12.779 60.682,12.971 60.300,12.971 ZM56.923,6.654 C56.895,6.490 56.854,6.135 56.854,6.039 C56.854,5.574 56.663,5.383 56.471,4.932 C56.430,4.809 56.171,4.631 56.020,4.480 C55.979,4.439 55.925,4.439 55.883,4.439 C55.719,4.439 55.555,4.631 55.364,4.631 C55.050,4.631 54.612,5.902 54.585,6.230 C54.585,6.230 54.585,7.270 54.585,7.270 C54.612,7.324 54.721,7.557 54.749,7.584 C54.776,7.625 54.817,7.680 54.885,7.680 C54.954,7.680 55.501,7.584 55.555,7.584 C55.596,7.598 56.102,7.693 56.280,7.748 C56.280,7.748 56.594,7.816 56.594,7.816 C56.635,7.789 57.182,7.693 57.182,7.693 C57.182,7.693 56.923,6.654 56.923,6.654 ZM51.321,35.508 C51.485,35.535 52.032,35.836 52.032,36.123 C52.032,36.260 51.608,36.902 51.362,36.902 C51.362,36.902 50.227,36.902 50.227,36.902 C50.022,36.738 49.571,36.670 49.311,36.643 C49.311,36.643 48.313,36.643 48.313,36.643 C47.589,36.383 47.302,35.863 47.069,35.180 C47.069,35.152 47.015,35.016 46.823,34.756 C46.823,34.756 46.727,34.346 46.727,34.346 C46.727,34.318 46.686,34.209 46.659,34.182 C46.454,33.854 45.811,32.910 45.757,32.855 C45.757,32.855 44.772,31.775 44.772,31.775 C44.526,31.529 44.171,31.338 43.843,31.338 C43.774,31.338 43.706,31.338 43.679,31.434 C43.679,31.488 43.706,31.598 43.706,31.721 C43.706,31.844 43.679,31.980 43.679,32.008 C43.679,32.008 43.610,32.363 43.610,32.363 C43.610,32.363 43.610,33.334 43.610,33.334 C43.610,33.375 43.542,33.635 43.515,33.730 C43.515,34.113 43.638,34.305 43.774,34.660 C43.774,34.660 43.679,35.084 43.679,35.084 C43.679,35.740 44.841,35.125 44.841,36.055 C44.841,36.602 44.157,36.547 43.774,36.574 C43.774,36.574 42.188,36.574 42.188,36.574 C41.997,36.602 41.081,36.684 40.862,36.738 C40.671,36.875 40.602,36.902 40.438,36.902 C40.151,36.902 40.015,36.766 39.796,36.643 C39.782,36.643 39.563,36.602 39.536,36.574 C39.468,36.520 39.304,36.328 39.304,36.314 C39.304,36.287 39.427,36.055 39.468,36.000 C39.727,35.672 40.206,35.549 40.630,35.549 C40.753,35.549 40.849,35.549 40.958,35.576 C41.149,35.439 41.286,35.221 41.382,34.988 C41.368,34.920 41.341,34.729 41.341,34.510 C41.341,34.305 41.368,34.086 41.382,34.018 C41.409,33.730 41.628,33.525 41.628,33.211 C41.628,33.211 41.628,33.088 41.628,33.088 C41.628,33.088 41.464,32.760 41.464,32.760 C41.464,32.760 41.464,32.363 41.464,32.363 C41.409,31.871 41.286,31.365 41.286,30.846 C41.286,30.846 41.464,29.848 41.464,29.848 C41.464,29.848 41.436,29.328 41.436,29.328 C41.436,29.260 41.436,29.164 41.464,29.096 C41.505,28.809 41.532,28.508 41.532,28.221 C41.532,27.934 41.505,27.660 41.464,27.346 C41.436,27.141 41.464,26.895 41.382,26.703 C41.245,26.430 41.026,26.170 40.794,25.992 C40.370,25.623 39.700,25.951 39.399,25.404 C39.399,25.404 39.372,25.336 39.372,25.309 C39.372,24.980 39.823,24.939 40.056,24.912 C40.056,24.912 40.630,24.912 40.630,24.912 C40.890,24.885 41.177,24.721 41.464,24.721 C41.505,24.721 41.628,24.721 41.628,24.748 C41.642,24.748 41.901,24.912 41.956,24.912 C41.956,24.912 42.517,24.912 42.517,24.912 C42.517,24.912 43.419,24.980 43.419,24.980 C43.446,25.008 43.610,25.008 43.651,25.008 C43.938,25.008 44.089,24.912 44.390,24.912 C45.046,24.912 45.757,24.953 46.427,25.145 C47.302,25.404 48.013,25.377 48.573,26.143 C49.024,26.785 49.079,26.895 49.079,27.729 C49.079,28.098 48.997,28.439 48.724,28.713 C48.628,28.836 48.026,29.424 47.917,29.547 C47.849,29.547 47.602,29.588 47.589,29.643 C47.507,29.670 46.974,29.930 46.919,29.943 C46.727,30.025 46.399,29.971 46.399,30.230 C46.399,30.709 46.714,31.324 47.069,31.598 C47.110,31.625 47.302,31.775 47.329,31.775 C47.329,31.775 47.411,31.871 47.411,31.871 C47.438,31.885 47.630,32.172 47.685,32.199 C47.698,32.213 48.026,32.555 48.081,32.623 C48.122,32.691 48.505,33.498 48.573,33.594 C48.601,33.662 48.997,34.182 49.147,34.346 C49.352,34.578 49.571,34.729 49.804,34.920 C49.804,34.920 50.474,35.412 50.474,35.412 C50.474,35.412 51.321,35.508 51.321,35.508 ZM46.495,29.314 C46.495,29.232 46.563,28.672 46.591,28.453 C46.591,28.453 46.591,28.357 46.591,28.357 C46.591,27.537 46.304,26.703 45.661,26.143 C45.456,25.951 45.265,25.732 44.964,25.732 C44.964,25.732 44.772,25.732 44.772,25.732 C44.772,25.732 43.938,25.814 43.938,25.814 C43.474,26.143 43.419,26.566 43.419,27.113 C43.419,27.113 43.419,28.125 43.419,28.125 C43.419,28.180 43.378,28.508 43.351,28.631 C43.351,28.631 43.351,28.713 43.351,28.713 C43.378,28.768 43.419,29.027 43.419,29.055 C43.515,29.383 43.446,29.902 43.774,30.107 C44.102,30.354 44.294,30.449 44.772,30.449 C44.813,30.449 44.977,30.381 45.005,30.381 C45.005,30.381 45.757,29.875 45.757,29.875 C45.976,29.738 46.454,29.615 46.495,29.314 ZM39.567,2.539 C39.554,2.566 39.226,2.607 39.171,2.607 C39.034,2.662 38.747,3.414 38.747,3.482 C38.747,3.482 38.843,3.920 38.843,3.920 C38.843,3.934 38.843,4.029 38.816,4.029 C38.816,4.057 38.747,4.180 38.747,4.221 C38.651,4.604 38.775,5.328 38.583,5.615 C38.583,5.615 38.515,7.748 38.515,7.748 C38.528,8.240 38.788,8.650 38.816,9.115 C38.816,9.115 38.911,10.633 38.911,10.633 C38.911,10.633 39.034,11.057 39.171,11.453 C39.171,11.453 39.171,12.711 39.171,12.711 C39.171,12.902 38.911,13.039 38.747,13.039 C38.351,13.039 37.817,12.547 37.585,12.287 C37.476,12.164 37.134,11.768 37.066,11.699 C37.066,11.672 36.942,11.385 36.929,11.371 C36.874,11.316 36.382,10.838 36.327,10.770 C36.054,10.496 35.808,10.209 35.575,9.881 C35.370,9.566 35.124,9.471 34.919,9.211 C34.919,9.184 34.796,9.006 34.755,8.951 C34.728,8.910 34.536,8.568 34.509,8.555 C34.249,8.199 33.798,8.049 33.497,7.789 C33.497,7.789 33.265,7.529 33.265,7.529 C33.237,7.516 33.087,7.324 33.087,7.270 C33.087,7.270 32.595,6.873 32.595,6.873 C32.595,6.873 31.515,5.711 31.515,5.711 C31.364,5.547 30.817,5.027 30.749,4.959 C30.653,4.891 30.585,4.863 30.448,4.863 C30.230,4.863 30.161,5.027 30.161,5.219 C30.161,5.260 30.161,5.451 30.189,5.451 C30.189,5.451 30.257,6.107 30.257,6.107 C30.257,6.107 30.257,7.270 30.257,7.270 C30.257,7.270 30.325,8.555 30.325,8.555 C30.353,8.568 30.421,8.979 30.421,9.020 C30.421,9.020 30.421,9.881 30.421,9.881 C30.421,9.895 30.489,10.182 30.517,10.209 C30.558,10.633 30.681,11.057 30.681,11.480 C30.681,11.576 30.681,11.699 30.653,11.795 C30.653,11.795 30.749,11.863 30.749,11.863 C30.968,11.891 31.884,12.000 32.075,12.055 C32.403,12.068 32.431,12.164 32.431,12.451 C32.431,12.943 31.980,13.039 31.583,13.039 C31.173,13.039 31.105,12.943 30.749,12.861 C30.653,12.861 30.380,12.779 30.325,12.779 C30.325,12.779 29.642,12.779 29.642,12.779 C29.642,12.779 28.220,12.875 28.220,12.875 C27.892,12.875 27.700,12.861 27.345,12.779 C27.153,12.738 27.153,12.711 27.153,12.547 C27.153,12.068 27.605,11.891 28.015,11.863 C28.015,11.863 28.671,11.863 28.671,11.863 C28.698,11.863 28.931,11.631 28.999,11.535 C29.054,11.508 29.163,11.316 29.163,11.289 C29.191,11.125 29.259,10.441 29.259,10.305 C29.259,10.305 29.163,9.238 29.163,9.238 C29.163,9.238 29.163,9.047 29.163,9.047 C29.163,8.951 29.163,8.855 29.259,8.787 C29.259,8.787 29.259,8.199 29.259,8.199 C29.259,8.199 29.163,6.490 29.163,6.490 C29.163,6.490 29.163,5.711 29.163,5.711 C29.218,5.643 29.327,5.355 29.327,5.150 C29.327,4.508 29.122,4.029 28.931,3.469 C28.931,3.441 28.862,3.223 28.835,3.209 C28.767,3.045 28.739,2.990 28.603,2.867 C28.507,2.799 27.987,2.402 27.837,2.279 C27.400,1.951 26.607,1.883 26.525,1.199 C26.525,1.172 26.566,1.008 26.593,0.953 C26.607,0.912 26.730,0.816 26.757,0.789 C26.757,0.789 27.085,0.789 27.085,0.789 C27.276,0.775 27.413,0.625 27.632,0.625 C28.015,0.625 28.384,0.748 28.767,0.789 C28.835,0.816 29.519,0.857 29.587,0.857 C29.614,0.885 29.929,1.049 29.997,1.117 C29.997,1.117 30.421,1.623 30.421,1.623 C30.804,1.910 31.159,2.238 31.515,2.539 C31.515,2.566 31.651,2.607 31.679,2.607 C31.692,2.635 31.747,2.689 31.747,2.703 C31.747,2.703 31.939,3.045 31.939,3.045 C31.939,3.045 32.499,3.633 32.499,3.633 C32.526,3.660 32.650,3.920 32.663,3.961 C33.073,4.604 33.620,4.672 34.085,5.219 C34.495,5.670 34.728,6.094 35.083,6.613 C35.083,6.641 35.151,6.682 35.179,6.709 C35.179,6.709 35.411,6.873 35.411,6.873 C35.507,6.941 36.067,7.557 36.163,7.598 C36.191,7.652 36.382,7.775 36.409,7.789 C36.642,7.980 36.901,8.555 37.161,8.555 C37.353,8.555 37.517,8.404 37.653,8.295 C37.845,8.145 37.845,8.131 37.845,7.953 C37.845,7.953 37.653,6.723 37.653,6.723 C37.653,6.723 37.749,5.547 37.749,5.547 C37.735,5.506 37.585,5.232 37.585,5.219 C37.585,5.219 37.585,4.891 37.585,4.891 C37.585,4.836 37.517,4.672 37.489,4.631 C37.489,4.631 37.489,3.373 37.489,3.373 C37.489,3.250 37.448,2.730 37.421,2.607 C37.380,2.443 37.230,2.279 37.038,2.279 C36.833,2.279 36.614,2.375 36.382,2.375 C36.122,2.375 35.028,2.348 35.015,1.883 C35.015,1.883 35.015,1.459 35.015,1.459 C35.015,1.008 35.015,0.625 35.575,0.625 C36.067,0.625 36.587,0.789 37.038,0.789 C37.298,0.789 37.653,0.748 37.913,0.625 C37.913,0.625 39.567,0.625 39.567,0.625 C39.718,0.721 39.909,0.721 40.101,0.721 C40.101,0.721 40.429,0.721 40.429,0.721 C40.661,0.844 40.661,1.117 40.661,1.377 C40.661,1.377 40.661,1.459 40.661,1.459 C40.661,1.691 40.538,1.910 40.333,2.047 C40.333,2.047 39.567,2.539 39.567,2.539 ZM27.103,24.584 C27.568,24.789 27.786,25.117 27.896,25.555 C27.896,25.623 27.951,26.074 27.978,26.115 C27.978,26.143 28.046,26.266 28.074,27.182 C28.074,27.414 27.759,27.578 27.554,27.578 C27.144,27.578 27.103,27.414 26.761,27.182 C26.747,27.182 26.624,27.113 26.597,27.086 C26.583,27.086 26.365,27.045 26.337,27.018 C25.982,26.867 25.818,26.594 25.531,26.279 C25.367,26.279 24.642,26.238 24.478,26.184 C24.451,26.184 24.191,26.047 24.136,26.047 C24.122,26.020 23.863,26.020 23.767,26.020 C23.056,26.020 22.742,26.594 22.605,27.182 C22.605,27.209 22.536,27.469 22.509,27.537 C22.509,27.564 22.536,27.578 22.605,27.920 C22.605,28.480 22.372,29.027 22.372,29.615 C22.372,29.943 22.865,29.943 23.124,29.943 C23.124,29.943 23.439,29.943 23.439,29.943 C23.617,29.930 24.122,29.875 24.136,29.848 C24.191,29.848 24.519,29.574 24.642,29.451 C24.738,29.355 25.011,29.096 25.038,29.055 C25.367,28.604 24.902,27.988 25.708,27.988 C26.228,27.988 26.433,28.357 26.433,28.863 C26.433,29.479 26.105,29.506 26.105,30.025 C26.105,30.258 26.228,30.381 26.269,30.586 C26.269,30.586 26.337,31.488 26.337,31.488 C26.365,31.529 26.488,31.912 26.501,32.049 C26.488,32.213 26.433,32.623 26.433,32.623 C26.392,32.719 26.105,33.006 25.941,33.020 C25.872,33.020 25.722,33.020 25.708,32.951 C25.681,32.924 25.626,32.664 25.626,32.623 C25.462,32.309 25.011,31.584 24.574,31.229 C24.382,31.078 24.122,31.078 23.972,31.078 C23.972,31.078 23.439,31.256 23.439,31.256 C23.411,31.256 23.220,31.174 23.165,31.174 C23.165,31.174 23.083,31.160 23.029,31.160 C22.837,31.160 22.386,31.680 22.372,31.885 C22.372,31.912 22.345,32.172 22.345,32.295 C22.345,32.363 22.372,32.623 22.372,32.623 C22.386,32.924 22.632,34.277 22.673,34.578 C23.193,35.111 22.933,35.549 23.781,35.549 C24.232,35.549 24.683,35.412 25.134,35.385 C25.134,35.385 25.462,35.385 25.462,35.385 C25.490,35.385 25.749,35.248 25.777,35.221 C25.777,35.221 26.105,35.152 26.105,35.152 C26.173,35.125 26.337,35.084 26.337,35.057 C26.392,35.029 26.693,34.770 26.761,34.756 C26.939,34.605 27.171,34.633 27.308,34.496 C27.759,34.113 28.087,33.525 28.757,33.525 C28.757,33.525 29.044,33.525 29.044,33.525 C29.181,33.621 29.208,33.799 29.208,33.963 C29.208,34.400 29.085,34.797 28.867,35.152 C28.853,35.193 28.566,35.576 28.538,35.645 C28.511,35.672 28.470,36.068 28.443,36.123 C28.443,36.150 28.402,36.260 28.374,36.287 C28.306,36.383 27.896,36.779 27.814,36.861 C27.814,36.861 27.691,36.861 27.691,36.861 C27.527,36.861 27.363,36.875 27.199,36.902 C27.007,36.930 26.816,36.943 26.624,36.943 C26.242,36.943 25.982,36.766 25.531,36.766 C25.449,36.766 25.161,36.779 25.134,36.779 C25.134,36.779 24.492,36.875 24.492,36.875 C24.095,36.943 23.671,36.943 23.247,36.943 C23.247,36.943 22.249,36.943 22.249,36.943 C21.962,36.943 21.757,36.861 21.511,36.861 C21.333,36.861 21.156,37.025 20.992,37.025 C20.992,37.025 20.240,36.861 20.240,36.861 C20.199,36.861 19.665,36.998 19.433,37.025 C19.009,37.025 18.367,36.807 18.367,36.314 C18.367,35.152 20.171,35.699 20.171,34.059 C20.171,33.922 20.171,33.785 20.144,33.635 C20.117,33.471 20.103,33.279 20.103,33.115 C20.103,32.979 20.117,32.814 20.144,32.664 C20.171,32.527 20.171,32.404 20.171,32.268 C20.171,32.076 20.144,31.912 20.117,31.721 C20.103,31.516 20.076,31.297 20.076,31.078 C20.076,30.873 20.103,30.682 20.117,30.490 C20.144,30.299 20.199,30.107 20.199,29.902 C20.199,29.574 20.117,29.232 20.048,28.904 C19.980,28.631 19.925,28.316 19.925,28.029 C19.925,27.920 19.952,27.824 19.980,27.729 C20.007,27.633 20.021,27.537 20.021,27.441 C20.021,27.414 20.007,27.346 20.007,27.346 C19.980,27.250 19.788,26.895 19.761,26.854 C19.624,26.703 18.941,25.992 18.790,25.883 C18.777,25.855 18.708,25.760 18.708,25.719 C18.708,25.363 19.050,25.008 19.337,24.912 C19.583,24.816 20.267,24.584 20.335,24.584 C20.363,24.584 20.568,24.557 20.636,24.557 C20.896,24.557 21.115,24.625 21.347,24.680 C21.497,24.693 21.661,24.748 21.826,24.748 C21.990,24.748 22.113,24.721 22.249,24.693 C22.372,24.680 22.509,24.652 22.646,24.652 C22.988,24.652 23.261,24.816 23.576,24.816 C23.603,24.816 24.068,24.844 24.232,24.844 C25.107,24.844 25.968,24.680 26.843,24.652 C26.939,24.584 26.980,24.584 27.103,24.584 ZM16.197,10.209 C16.197,10.277 16.115,10.496 16.101,10.537 C16.101,10.578 15.882,10.838 15.855,10.865 C15.841,10.920 15.787,11.180 15.759,11.193 C15.759,11.193 15.691,11.453 15.691,11.453 C15.582,11.604 14.980,12.246 14.871,12.355 C14.816,12.410 14.652,12.520 14.611,12.547 C14.556,12.547 14.091,12.602 14.009,12.615 C13.558,12.711 13.162,13.094 12.683,13.121 C12.669,13.121 12.246,13.135 12.054,13.135 C12.054,13.135 11.439,13.121 11.439,13.121 C11.371,13.094 11.083,12.971 11.029,12.943 C10.591,12.779 10.113,12.861 9.689,12.615 C9.238,12.383 8.787,11.740 8.787,11.221 C8.787,11.221 8.787,10.961 8.787,10.961 C8.787,10.633 8.828,10.209 9.169,10.209 C9.169,10.209 9.279,10.209 9.279,10.209 C9.593,10.318 9.826,10.564 9.949,10.865 C9.949,10.865 10.017,11.193 10.017,11.193 C10.044,11.221 10.154,11.344 10.208,11.371 C10.208,11.371 10.345,11.453 10.345,11.453 C10.373,11.480 10.496,11.768 10.537,11.795 C10.564,11.809 10.660,11.932 10.701,11.959 C10.796,11.932 10.892,11.932 10.988,11.932 C11.193,11.932 11.439,11.986 11.603,12.123 C11.808,12.164 12.000,12.191 12.218,12.191 C12.423,12.191 12.642,12.164 12.861,12.123 C13.230,12.055 14.009,10.756 14.009,10.441 C14.009,10.441 14.009,10.277 14.009,10.277 C14.009,10.113 13.941,9.594 13.941,9.539 C13.914,9.525 13.777,9.334 13.777,9.279 C13.640,9.047 13.640,8.691 13.353,8.555 C13.326,8.527 13.121,8.473 13.121,8.459 C13.093,8.459 12.875,8.240 12.861,8.213 C12.779,8.145 12.451,7.939 12.355,7.885 C12.314,7.844 11.904,7.652 11.863,7.625 C11.808,7.598 11.548,7.393 11.535,7.365 C10.769,6.846 10.468,6.969 9.949,6.135 C9.826,5.930 9.470,5.355 9.443,5.287 C9.429,5.260 9.361,5.027 9.361,4.959 C9.361,4.959 9.361,3.305 9.361,3.305 C9.361,3.277 9.539,2.566 9.621,2.307 C9.730,1.787 9.949,1.910 10.277,1.650 C10.373,1.555 11.029,0.885 11.111,0.789 C11.220,0.693 11.535,0.652 11.603,0.625 C12.150,0.461 12.642,0.393 13.216,0.393 C13.216,0.393 13.613,0.393 13.613,0.393 C13.832,0.393 14.789,0.434 15.007,0.461 C15.335,0.584 16.019,1.172 16.019,1.650 C16.005,1.664 15.951,1.924 15.951,1.979 C15.951,1.979 15.951,2.635 15.951,2.635 C15.923,2.703 15.814,3.182 15.759,3.305 C15.746,3.400 15.650,3.400 15.554,3.400 C15.554,3.400 15.267,3.400 15.267,3.400 C15.103,3.318 15.007,2.963 14.939,2.867 C14.884,2.826 14.611,2.539 14.529,2.443 C14.515,2.443 14.365,2.402 14.351,2.375 C14.132,2.266 14.173,1.951 13.941,1.787 C13.804,1.732 13.093,1.500 12.929,1.459 C12.929,1.459 12.519,1.459 12.519,1.459 C12.410,1.555 11.931,2.020 11.863,2.115 C11.630,2.430 11.603,2.949 11.603,3.305 C11.603,3.934 11.958,4.289 12.355,4.795 C12.683,5.232 13.162,5.027 13.517,5.287 C13.558,5.328 13.968,5.684 14.009,5.711 C14.091,5.766 14.447,5.998 14.529,6.039 C14.556,6.066 14.816,6.189 14.871,6.203 C14.871,6.230 14.912,6.285 15.103,6.641 C15.103,6.641 15.759,7.297 15.759,7.297 C15.759,7.297 16.019,7.461 16.019,7.461 C16.265,7.652 16.279,8.076 16.279,8.404 C16.279,8.404 16.279,9.279 16.279,9.279 C16.197,9.443 16.197,9.621 16.197,9.785 C16.197,9.785 16.197,10.209 16.197,10.209 ZM7.424,34.209 C7.424,34.277 7.342,34.496 7.328,34.537 C7.328,34.578 7.109,34.838 7.082,34.865 C7.068,34.920 7.013,35.180 6.986,35.193 C6.986,35.193 6.918,35.453 6.918,35.453 C6.808,35.604 6.207,36.246 6.097,36.355 C6.043,36.410 5.879,36.520 5.838,36.547 C5.783,36.547 5.318,36.602 5.236,36.615 C4.785,36.711 4.388,37.094 3.910,37.121 C3.896,37.121 3.472,37.135 3.281,37.135 C3.281,37.135 2.666,37.121 2.666,37.121 C2.597,37.094 2.310,36.971 2.256,36.943 C1.818,36.779 1.340,36.861 0.916,36.615 C0.465,36.383 0.013,35.740 0.013,35.221 C0.013,35.221 0.013,34.961 0.013,34.961 C0.013,34.633 0.054,34.209 0.396,34.209 C0.396,34.209 0.506,34.209 0.506,34.209 C0.820,34.318 1.052,34.564 1.176,34.865 C1.176,34.865 1.244,35.193 1.244,35.193 C1.271,35.221 1.381,35.344 1.435,35.371 C1.435,35.371 1.572,35.453 1.572,35.453 C1.599,35.480 1.722,35.768 1.763,35.795 C1.791,35.809 1.886,35.932 1.927,35.959 C2.023,35.932 2.119,35.932 2.215,35.932 C2.420,35.932 2.666,35.986 2.830,36.123 C3.035,36.164 3.226,36.191 3.445,36.191 C3.650,36.191 3.869,36.164 4.088,36.123 C4.457,36.055 5.236,34.756 5.236,34.441 C5.236,34.441 5.236,34.277 5.236,34.277 C5.236,34.113 5.168,33.594 5.168,33.539 C5.140,33.525 5.004,33.334 5.004,33.279 C4.867,33.047 4.867,32.691 4.580,32.555 C4.552,32.527 4.347,32.473 4.347,32.459 C4.320,32.459 4.101,32.240 4.088,32.213 C4.006,32.145 3.677,31.939 3.582,31.885 C3.541,31.844 3.131,31.652 3.090,31.625 C3.035,31.598 2.775,31.393 2.761,31.365 C1.996,30.846 1.695,30.969 1.176,30.135 C1.052,29.930 0.697,29.355 0.670,29.287 C0.656,29.260 0.588,29.027 0.588,28.959 C0.588,28.959 0.588,27.305 0.588,27.305 C0.588,27.277 0.765,26.566 0.847,26.307 C0.957,25.787 1.176,25.910 1.504,25.650 C1.599,25.555 2.256,24.885 2.338,24.789 C2.447,24.693 2.761,24.652 2.830,24.625 C3.377,24.461 3.869,24.393 4.443,24.393 C4.443,24.393 4.840,24.393 4.840,24.393 C5.058,24.393 6.015,24.434 6.234,24.461 C6.562,24.584 7.246,25.172 7.246,25.650 C7.232,25.664 7.177,25.924 7.177,25.979 C7.177,25.979 7.177,26.635 7.177,26.635 C7.150,26.703 7.041,27.182 6.986,27.305 C6.972,27.400 6.877,27.400 6.781,27.400 C6.781,27.400 6.494,27.400 6.494,27.400 C6.330,27.318 6.234,26.963 6.166,26.867 C6.111,26.826 5.838,26.539 5.756,26.443 C5.742,26.443 5.592,26.402 5.578,26.375 C5.359,26.266 5.400,25.951 5.168,25.787 C5.031,25.732 4.320,25.500 4.156,25.459 C4.156,25.459 3.746,25.459 3.746,25.459 C3.636,25.555 3.158,26.020 3.090,26.115 C2.857,26.430 2.830,26.949 2.830,27.305 C2.830,27.934 3.185,28.289 3.582,28.795 C3.910,29.232 4.388,29.027 4.744,29.287 C4.785,29.328 5.195,29.684 5.236,29.711 C5.318,29.766 5.674,29.998 5.756,30.039 C5.783,30.066 6.043,30.189 6.097,30.203 C6.097,30.230 6.138,30.285 6.330,30.641 C6.330,30.641 6.986,31.297 6.986,31.297 C6.986,31.297 7.246,31.461 7.246,31.461 C7.492,31.652 7.506,32.076 7.506,32.404 C7.506,32.404 7.506,33.279 7.506,33.279 C7.424,33.443 7.424,33.621 7.424,33.785 C7.424,33.785 7.424,34.209 7.424,34.209 Z" id="path-1" class="cls-2" fill-rule="evenodd"/>
</svg>
