<?xml version="1.0" encoding="utf-8"?>

<!DOCTYPE svg PUBLIC "-//W3C//DTD SVG 1.1//EN" "http://www.w3.org/Graphics/SVG/1.1/DTD/svg11.dtd">
<svg xmlns="http://www.w3.org/2000/svg"
	xmlns:xlink="http://www.w3.org/1999/xlink"
	width="9px" height="9px">
<path fill-rule="evenodd" fill="#fff" d=" M8.99227 7.4949 C8.99227 7.4949 7.49493 8.99232 7.49493 8.99232 C7.49493 8.99232 4.50009 5.99749 4.50009 5.99749 C4.50009 5.99749 1.50526 8.99232 1.50526 8.99232 C1.50526 8.99232 0.00791568 7.4949 0.00791568 7.4949 C0.00791568 7.4949 3.00271 4.50011 3.00271 4.50011 C3.00271 4.50011 0.00791568 1.50532 0.00791568 1.50532 C0.00791568 1.50532 1.50526 0.0079019 1.50526 0.0079019 C1.50526 0.0079019 4.50009 3.00273 4.50009 3.00273 C4.50009 3.00273 7.49493 0.0079019 7.49493 0.0079019 C7.49493 0.0079019 8.99227 1.50532 8.99227 1.50532 C8.99227 1.50532 5.99748 4.50011 5.99748 4.50011 C5.99748 4.50011 8.99227 7.4949 8.99227 7.4949 Z"/>
</svg>
